<svg width="80" height="27" viewBox="0 0 80 27" fill="none" xmlns="http://www.w3.org/2000/svg">
<g clip-path="url(#clip0_19202_2381)">
<path d="M79.899 20.5346V21.1441H78.276V24.1635H77.5792V20.5346H79.899Z" fill="white"/>
<path d="M75.9407 22.0443V22.6561H73.975V22.0443H75.9407ZM74.1735 20.5346V24.1635H73.4813V20.5346H74.1735ZM76.4346 20.5346V24.1635H75.7447V20.5346H76.4346Z" fill="white"/>
<path d="M69.9718 23.1735L71.5713 20.5346H72.3321V24.1635H71.6399V21.5222L70.0475 24.1635H69.2796V20.5346H69.9718V23.1735Z" fill="white"/>
<path d="M66.0881 23.2894L67.2598 20.5346H67.8693L66.3504 24.1635H65.8258L64.3374 20.5346H64.9399L66.0881 23.2894ZM64.7438 20.5346V24.1635H64.0516V20.5346H64.7438ZM67.4513 24.1635V20.5346H68.1387V24.1635H67.4513Z" fill="white"/>
<path d="M60.542 23.1735L62.1415 20.5346H62.9023V24.1635H62.2101V21.5222L60.6177 24.1635H59.8498V20.5346H60.542V23.1735Z" fill="white"/>
<path d="M55.5443 25.5242V20.5346H56.2341V21.1229H56.2931C56.3341 21.0472 56.3932 20.9599 56.4704 20.8606C56.5475 20.7614 56.6546 20.6748 56.7916 20.6007C56.9287 20.5251 57.1099 20.4873 57.3351 20.4873C57.628 20.4873 57.8894 20.5613 58.1194 20.7093C58.3492 20.8574 58.5297 21.0709 58.6603 21.3497C58.7927 21.6284 58.8588 21.9639 58.8588 22.356C58.8588 22.7482 58.7934 23.0846 58.6628 23.3649C58.532 23.6437 58.3524 23.8586 58.124 24.0099C57.8958 24.1595 57.6351 24.2344 57.342 24.2344C57.1216 24.2344 56.9413 24.1973 56.8011 24.1232C56.6625 24.0492 56.5538 23.9627 56.475 23.8634C56.3963 23.7642 56.3357 23.676 56.2931 23.5988H56.2507V25.5242H55.5443ZM56.2365 22.3489C56.2365 22.6041 56.2735 22.8279 56.3475 23.0199C56.4216 23.2122 56.5287 23.3626 56.6687 23.4712C56.8089 23.5783 56.9807 23.6318 57.1838 23.6318C57.3949 23.6318 57.5713 23.576 57.713 23.4641C57.8548 23.3506 57.9619 23.1972 58.0344 23.0034C58.1083 22.8097 58.1454 22.5916 58.1454 22.3489C58.1454 22.1096 58.1091 21.8946 58.0367 21.7041C57.9658 21.5134 57.8587 21.3631 57.7153 21.2528C57.5736 21.1425 57.3964 21.0874 57.1838 21.0874C56.9791 21.0874 56.8059 21.1402 56.6641 21.2457C56.5239 21.3511 56.4177 21.4985 56.3451 21.6875C56.2726 21.8766 56.2365 22.097 56.2365 22.3489Z" fill="white"/>
<path d="M51.5357 21.1441V20.5346H54.5976V21.1441H53.4138V24.1635H52.7241V21.1441H51.5357Z" fill="white"/>
<path d="M49.3646 24.2367C49.0134 24.2367 48.7109 24.157 48.4574 23.9981C48.2054 23.8374 48.0116 23.6161 47.8761 23.3342C47.7407 23.0522 47.673 22.7293 47.673 22.3655C47.673 21.997 47.7423 21.6717 47.881 21.3898C48.0196 21.1063 48.2149 20.885 48.4668 20.7259C48.7189 20.5668 49.0158 20.4873 49.3575 20.4873C49.6331 20.4873 49.8788 20.5385 50.0946 20.6409C50.3104 20.7416 50.4844 20.8834 50.6166 21.0661C50.7506 21.2489 50.8301 21.4623 50.8554 21.7064H50.1678C50.13 21.5363 50.0435 21.3898 49.9079 21.267C49.7741 21.1441 49.5945 21.0826 49.3692 21.0826C49.1724 21.0826 48.9999 21.1346 48.8518 21.2385C48.7054 21.341 48.5912 21.4874 48.5094 21.6781C48.4274 21.8669 48.3864 22.0907 48.3864 22.3489C48.3864 22.6135 48.4267 22.8419 48.5071 23.0342C48.5872 23.2263 48.7007 23.375 48.8472 23.4807C48.9953 23.5862 49.1693 23.6389 49.3692 23.6389C49.5032 23.6389 49.6244 23.6145 49.7331 23.5657C49.8434 23.5153 49.9355 23.4436 50.0096 23.3506C50.0851 23.2578 50.1379 23.1459 50.1678 23.0153H50.8554C50.8301 23.2499 50.7537 23.4593 50.6261 23.6437C50.4985 23.828 50.3276 23.9728 50.1135 24.0783C49.9009 24.1839 49.6513 24.2367 49.3646 24.2367Z" fill="white"/>
<path d="M32.6763 3.10346C33.0227 2.8494 33.5365 2.60688 34.2179 2.37591C34.8992 2.14494 35.725 2.02945 36.695 2.02945C37.3763 2.02945 37.9942 2.09297 38.5485 2.22001C39.1028 2.33548 39.5763 2.52025 39.9689 2.77433C40.373 3.01685 40.6791 3.32865 40.8871 3.70974C41.1064 4.09084 41.2162 4.547 41.2162 5.07821C41.2162 6.47557 40.5001 7.4283 39.0681 7.93644C40.9159 8.21359 41.8398 9.16056 41.8398 10.7773C41.8398 11.297 41.7359 11.7878 41.528 12.2497C41.32 12.7001 41.0082 13.0928 40.5926 13.4277C40.1769 13.751 39.6571 14.0109 39.0335 14.2072C38.4215 14.4035 37.7113 14.5017 36.9029 14.5017C36.3486 14.5017 35.8289 14.4555 35.3439 14.3631C34.8703 14.2822 34.4374 14.1725 34.0447 14.0339C33.6636 13.8838 33.3288 13.7221 33.0399 13.5489C32.7629 13.3641 32.5434 13.1794 32.3818 12.9946V10.3269C32.5665 10.6387 32.8033 10.9275 33.092 11.1931C33.3806 11.4587 33.7156 11.6896 34.0967 11.886C34.4778 12.0823 34.9051 12.2382 35.3785 12.3537C35.8635 12.4576 36.3832 12.5096 36.9375 12.5096C37.307 12.5096 37.6536 12.4692 37.9768 12.3883C38.3002 12.3075 38.5774 12.192 38.8083 12.0419C39.0508 11.8802 39.2415 11.6839 39.3799 11.4529C39.5185 11.2219 39.5878 10.9505 39.5878 10.6387C39.5878 10.096 39.3742 9.69754 38.9469 9.44348C38.5313 9.18942 37.8497 9.0624 36.9029 9.0624H35.0667V7.27817H36.8855C37.2782 7.27817 37.6073 7.23776 37.8729 7.15692C38.1386 7.06453 38.3522 6.94327 38.5138 6.79314C38.6756 6.64302 38.791 6.46978 38.8604 6.27347C38.9411 6.07716 38.9815 5.8635 38.9815 5.63254C38.9815 5.35538 38.9238 5.11864 38.8083 4.92231C38.6929 4.71445 38.5313 4.547 38.3233 4.41996C38.1154 4.29292 37.8729 4.20054 37.5959 4.14281C37.3186 4.07352 37.0184 4.03309 36.695 4.02154C36.2332 4.01 35.7943 4.06197 35.3785 4.17745C34.9744 4.29292 34.599 4.4546 34.2526 4.66248C33.9176 4.85879 33.6117 5.08399 33.3345 5.33805C33.0688 5.59213 32.8495 5.85196 32.6763 6.11757V3.10346Z" fill="white"/>
<path d="M44.3237 14.3284V2.20267H49.5897C52.315 2.20267 53.6777 3.20738 53.6777 5.21679C53.6777 5.90968 53.5334 6.48712 53.2447 6.94904C52.9559 7.41097 52.4998 7.76319 51.8762 8.00572C52.6268 8.13275 53.1754 8.43301 53.5218 8.90649C53.8683 9.36841 54.0415 9.9978 54.0415 10.7946C54.0415 11.4183 53.9317 11.9552 53.7124 12.4056C53.4929 12.856 53.1754 13.2256 52.7595 13.5143C52.3554 13.7914 51.8589 13.9993 51.2698 14.1379C50.6926 14.2649 50.0342 14.3284 49.2951 14.3284H44.3237ZM49.4338 12.3363C50.2653 12.3363 50.8773 12.2035 51.2698 11.9379C51.6625 11.6608 51.8589 11.2277 51.8589 10.6387C51.8589 10.0498 51.6509 9.63404 51.2353 9.39152C50.8196 9.14901 50.2305 9.02774 49.4683 9.02774H46.4889V12.3363H49.4338ZM49.2778 7.33014C49.9708 7.33014 50.5135 7.18578 50.9062 6.89708C51.3103 6.60836 51.5123 6.20417 51.5123 5.68451C51.5123 5.19948 51.3391 4.82992 50.9928 4.57586C50.6578 4.3218 50.1035 4.19476 49.3299 4.19476H46.4889V7.33014H49.2778Z" fill="white"/>
<path d="M59.1929 12.4229C59.4238 12.4229 59.6317 12.371 59.8165 12.267C60.0013 12.1631 60.1629 11.9726 60.3015 11.6954L55.0008 2.20267H57.5125L61.4101 9.23562L64.5974 2.20267H66.8667L62.4148 11.7994C62.1723 12.3306 61.9298 12.7694 61.6873 13.1159C61.4448 13.4508 61.1965 13.7221 60.9424 13.93C60.6883 14.1263 60.4227 14.2649 60.1456 14.3458C59.8799 14.4266 59.5913 14.467 59.2795 14.467C59.0023 14.467 58.7368 14.4381 58.4827 14.3804C58.2402 14.3227 58.038 14.2591 57.8764 14.1898V11.9379C58.038 12.0881 58.2343 12.2093 58.4652 12.3017C58.6963 12.3825 58.9388 12.4229 59.1929 12.4229Z" fill="white"/>
<path d="M70.8315 14.3284H68.6662V2.20267H70.8315V7.2955H72.6503L76.5479 2.20267H79.1809L74.5559 7.97107L79.9257 14.3284H77.1542L72.7544 9.07971H70.8315V14.3284Z" fill="white"/>
<path fill-rule="evenodd" clip-rule="evenodd" d="M11.1063 22.6231C11.1718 22.9396 11.2045 23.0978 11.1055 23.2088C11.0066 23.32 10.8415 23.3052 10.5114 23.2758C8.66346 23.1113 7.62998 22.7726 6.82166 22.4377C5.47706 21.8807 4.40878 20.8125 3.85183 19.4678C3.51699 18.6594 3.17813 17.6259 3.01357 15.7779C2.98417 15.4478 2.96948 15.2828 3.08058 15.1838C3.19171 15.0848 3.34991 15.1175 3.66633 15.183C7.3965 15.9551 10.3343 18.8928 11.1063 22.6231ZM14.6781 23.3439C14.4214 23.356 14.2931 23.3619 14.2049 23.2888C14.1167 23.2157 14.0978 23.0823 14.0601 22.8154C13.2854 17.3375 8.95184 13.0039 3.47397 12.2292C3.20709 12.1914 3.07364 12.1726 3.00057 12.0844C2.92752 11.9962 2.9335 11.8678 2.94547 11.6111C2.99563 10.536 3.09731 9.69121 3.22799 9.0023C3.27098 8.77564 3.29249 8.66232 3.38211 8.5936C3.47175 8.52486 3.58784 8.53359 3.82006 8.55105C11.2492 9.10954 17.1798 15.0402 17.7382 22.4694C17.7556 22.7017 17.7644 22.8177 17.6956 22.9073C17.6269 22.9969 17.5136 23.0185 17.2869 23.0614C16.598 23.1922 15.7532 23.2938 14.6781 23.3439ZM21.3377 21.0702C21.0455 21.3898 20.8994 21.5496 20.7216 21.4965C20.5436 21.4434 20.5056 21.207 20.4294 20.7341C19.2007 13.1096 13.1799 7.08876 5.55556 5.85992C5.08269 5.78372 4.84625 5.7456 4.7931 5.5677C4.73993 5.38979 4.89979 5.24368 5.21952 4.95146C5.68589 4.52517 6.22672 4.17866 6.82166 3.93222C7.94776 3.46577 9.51082 2.99165 13.1043 2.99165C16.6979 2.99165 18.2612 3.46579 19.3872 3.93222C20.7319 4.48918 21.8002 5.55747 22.3572 6.90209C22.8235 8.02809 23.2976 9.59128 23.2976 13.185C23.2976 16.7787 22.8235 18.3419 22.3572 19.4678C22.1106 20.0627 21.7641 20.6037 21.3377 21.0702ZM0.03302 13.185C0.03302 9.28702 0.556019 7.33807 1.19282 5.80068C2.04188 3.75084 3.67045 2.12226 5.72026 1.27319C7.25762 0.636382 9.20643 0.113525 13.1043 0.113525C17.0022 0.113525 18.9512 0.636382 20.4887 1.27319C22.5384 2.12226 24.1671 3.75084 25.0161 5.80068C25.6529 7.33807 26.1756 9.28702 26.1756 13.185C26.1756 17.0829 25.6529 19.0318 25.0161 20.5693C24.1671 22.619 22.5384 24.2477 20.4887 25.0967C18.9512 25.7335 17.0022 26.2565 13.1043 26.2565C9.20643 26.2565 7.25762 25.7335 5.72026 25.0967C3.67045 24.2477 2.04188 22.619 1.19282 20.5693C0.556019 19.0318 0.03302 17.0829 0.03302 13.185Z" fill="white"/>
<path d="M45.2112 22.2942C45.2112 22.4917 45.0512 22.6517 44.8536 22.6517C44.6562 22.6517 44.4962 22.4917 44.4962 22.2942C44.4962 22.0966 44.6562 21.9366 44.8536 21.9366C45.0512 21.9366 45.2112 22.0966 45.2112 22.2942Z" fill="white"/>
<path d="M41.1435 24.1635V20.5346H41.8498V24.1635H41.1435ZM41.5002 19.9747C41.3772 19.9747 41.2718 19.9338 41.1836 19.8518C41.097 19.7684 41.0537 19.6692 41.0537 19.5542C41.0537 19.4375 41.097 19.3383 41.1836 19.2565C41.2718 19.1729 41.3772 19.1313 41.5002 19.1313C41.6229 19.1313 41.7277 19.1729 41.8143 19.2565C41.9025 19.3383 41.9467 19.4375 41.9467 19.5542C41.9467 19.6692 41.9025 19.7684 41.8143 19.8518C41.7277 19.9338 41.6229 19.9747 41.5002 19.9747Z" fill="white"/>
<path d="M40.215 20.5346V21.1017H38.1644V20.5346H40.215ZM38.7267 24.1635V20.1141C38.7267 19.8873 38.7763 19.6991 38.8755 19.5494C38.9748 19.3982 39.1063 19.2856 39.27 19.2116C39.4339 19.1361 39.6117 19.0983 39.804 19.0983C39.9456 19.0983 40.067 19.1101 40.1678 19.1336C40.2687 19.1557 40.3433 19.1762 40.3923 19.195L40.2268 19.7668C40.1938 19.7574 40.1512 19.7463 40.0992 19.7337C40.0474 19.7196 39.9843 19.7125 39.9104 19.7125C39.7386 19.7125 39.6158 19.7551 39.5417 19.84C39.4692 19.925 39.433 20.048 39.433 20.2085V24.1635H38.7267Z" fill="white"/>
<path d="M36.6317 24.1635V20.5346H37.338V24.1635H36.6317ZM36.9884 19.9747C36.8655 19.9747 36.76 19.9338 36.6718 19.8518C36.5852 19.7684 36.5419 19.6692 36.5419 19.5542C36.5419 19.4375 36.5852 19.3383 36.6718 19.2565C36.76 19.1729 36.8655 19.1313 36.9884 19.1313C37.1112 19.1313 37.216 19.1729 37.3026 19.2565C37.3908 19.3383 37.4349 19.4375 37.4349 19.5542C37.4349 19.6692 37.3908 19.7684 37.3026 19.8518C37.216 19.9338 37.1112 19.9747 36.9884 19.9747Z" fill="white"/>
<path d="M33.1366 22.0088V24.1635H32.4301V19.3249H33.127V21.1252H33.1719C33.257 20.9299 33.3869 20.7747 33.5617 20.6598C33.7365 20.5449 33.9649 20.4873 34.247 20.4873C34.4957 20.4873 34.7131 20.5385 34.8989 20.6409C35.0863 20.7434 35.2312 20.8961 35.3336 21.0992C35.4375 21.3009 35.4895 21.5528 35.4895 21.8552V24.1635H34.7831V21.9404C34.7831 21.6742 34.7147 21.4678 34.5776 21.3214C34.4406 21.1733 34.25 21.0992 34.0059 21.0992C33.8389 21.0992 33.6893 21.1347 33.5571 21.2056C33.4263 21.2765 33.3231 21.3804 33.2476 21.5174C33.1735 21.653 33.1366 21.8167 33.1366 22.0088Z" fill="white"/>
</g>
<defs>
<clipPath id="clip0_19202_2381">
<rect width="80" height="26.37" fill="white"/>
</clipPath>
</defs>
</svg>
